<?xml version="1.0" encoding="iso-8859-1"?>
<!-- Uploaded to: SVG Repo, www.svgrepo.com, Generator: SVG Repo Mixer Tools -->
<svg height="800px" width="800px" version="1.1" id="Capa_1" xmlns="http://www.w3.org/2000/svg" xmlns:xlink="http://www.w3.org/1999/xlink" 
	 viewBox="0 0 446.615 446.615" xml:space="preserve">
<g>
	<g>
		<g>
			<path style="fill:#010002;" d="M275.755,383.323l0.862-0.626c41.106-29.897,37.383-43.049,27.889-62.045
				c-5.227-10.445-11.136-22.28-5.194-42.569c1.528-9.137,5.527-14.087,10.177-19.826c4.105-5.08,8.746-10.819,11.892-20.256
				c2.113-8.494-1.845-20.955-5.316-31.945c-1.179-3.731-2.398-7.568-3.154-10.673c19.728,6.064,40.505,15.33,48.552,36.774
				l0.033,0.065c1.975,14.558,8.998,49.69,32.01,68.873l0.821,0.683l44.032-6.893l0.52-0.927
				c18.086-31.653,0.951-52.275-15.607-72.214c-7.486-9.015-14.566-17.541-18.33-26.954c-3.276-8.218-4.089-17.826-4.861-27.239
				c-1.187-13.997-2.406-28.458-11.762-39.903c-8.348-10.226-27.345-21.622-39.172-25.467c-7.08-2.3-14.469-2.609-20.777-2.609
				c-1.926,0-3.853,0.024-5.812,0.065c-1.959,0.024-3.894,0.065-5.836,0.065c-10.266,0-18.696-1.024-26.467-5.999
				c-4.828-3.089-8.73-7.202-12.868-11.567c-3.609-3.82-7.69-8.137-12.477-11.469c-7.73-5.406-16.891-6.235-25.768-7.039
				c-4.926-0.447-26.759-0.447-31.71,0.008c-8.844,0.805-17.997,1.626-25.735,7.031c-4.739,3.308-8.665,7.454-12.477,11.469
				c-4.129,4.365-8.031,8.478-12.859,11.567c-7.779,4.975-16.192,5.999-26.459,5.999c-1.926,0-3.885-0.041-5.901-0.065
				c-1.91-0.041-3.837-0.065-5.763-0.065c-6.292,0-13.689,0.309-20.769,2.609c-11.827,3.845-30.832,15.241-39.172,25.467
				c-9.364,11.445-10.592,25.938-11.77,40.001c-0.772,9.315-1.569,18.923-4.861,27.141c-3.772,9.429-10.844,17.94-18.33,26.954
				c-16.558,19.948-33.685,40.578-15.607,72.214l0.528,0.927l44.138,6.113l0.813-0.683c23.004-19.175,30.035-54.299,32.01-68.857
				l0.024-0.081c8.047-21.459,28.832-30.71,48.552-36.766c-0.732,3.056-1.902,6.779-3.146,10.673
				c-3.487,10.998-7.43,23.459-5.251,32.189c3.081,9.242,7.722,14.965,11.819,20.004c4.633,5.739,8.641,10.697,10.266,20.232
				c5.844,19.882-0.073,31.726-5.292,42.187c-9.486,18.98-13.209,32.132,27.897,62.029l0.87,0.626 M178.107,283.65
				c-4.877-4.918-12.103-10.079-18.501-14.664l-0.317-0.228c-3.942-2.812-7.657-5.462-10.38-7.747l-0.829-0.683l-0.122,0.146
				c-1.674-2.577-3.536-4.91-5.438-7.275c-3.91-4.837-7.966-9.836-10.592-17.631c-1.634-6.6,2.154-18.582,5.202-28.247
				c1.87-5.901,3.26-10.453,3.869-14.184c14.932-0.91,25.662-18.899,35.172-34.847c5.454-9.161,11.64-19.525,15.574-19.923
				c1.821-0.203,4.081,0.74,6.503,2.764c9.543,7.958,19.492,30.653,20.882,47.617C220.611,206.795,201.801,263.865,178.107,283.65z
				 M314.862,236.09c-2.691,8.039-6.73,13.046-10.657,17.883c-1.983,2.447-3.894,4.861-5.617,7.543
				c-2.642,2.146-5.942,4.52-9.982,7.389c-6.454,4.601-13.721,9.787-18.631,14.737c-23.695-19.785-42.488-76.856-41.017-94.901
				c1.382-16.964,11.347-39.667,20.89-47.617c2.211-1.861,4.219-2.796,5.966-2.796c0.171,0,0.35,0.016,0.536,0.033
				c3.926,0.398,10.388,11.242,15.582,19.956c9.137,15.347,19.468,32.685,33.669,34.668c0.48,3.853,1.959,8.746,3.975,15.119
				C312.48,217.224,316.447,229.701,314.862,236.09z"/>
		</g>
		<g>
			<circle style="fill:#010002;" cx="174.53" cy="202.145" r="3.487"/>
		</g>
		<g>
			<circle style="fill:#010002;" cx="185.772" cy="160.722" r="3.487"/>
		</g>
		<g>
			<circle style="fill:#010002;" cx="180.935" cy="178.182" r="3.495"/>
		</g>
		<g>
			<circle style="fill:#010002;" cx="204.988" cy="173.337" r="3.495"/>
		</g>
		<g>
			<circle style="fill:#010002;" cx="202.557" cy="193.025" r="3.495"/>
		</g>
		<g>
			<circle style="fill:#010002;" cx="150.754" cy="206.99" r="3.495"/>
		</g>
		<g>
			<circle style="fill:#010002;" cx="148.34" cy="229.4" r="3.495"/>
		</g>
		<g>
			<circle style="fill:#010002;" cx="183.349" cy="218.345" r="3.495"/>
		</g>
		<g>
			<circle style="fill:#010002;" cx="202.557" cy="211.607" r="3.495"/>
		</g>
		<g>
			<circle style="fill:#010002;" cx="167.824" cy="231.831" r="3.495"/>
		</g>
		<g>
			<circle style="fill:#010002;" cx="200.135" cy="229.4" r="3.495"/>
		</g>
		<g>
			<circle style="fill:#010002;" cx="185.772" cy="243.95" r="3.487"/>
		</g>
		<g>
			<circle style="fill:#010002;" cx="180.935" cy="264.329" r="3.495"/>
		</g>
		<g>
			<circle style="fill:#010002;" cx="165.402" cy="252.095" r="3.487"/>
		</g>
		<g>
			<circle style="fill:#010002;" cx="273.658" cy="199.032" r="3.495"/>
		</g>
		<g>
			<circle style="fill:#010002;" cx="262.416" cy="157.617" r="3.487"/>
		</g>
		<g>
			<circle style="fill:#010002;" cx="267.253" cy="175.069" r="3.503"/>
		</g>
		<g>
			<circle style="fill:#010002;" cx="243.2" cy="170.232" r="3.495"/>
		</g>
		<g>
			<circle style="fill:#010002;" cx="245.622" cy="189.92" r="3.495"/>
		</g>
		<g>
			<circle style="fill:#010002;" cx="297.418" cy="203.876" r="3.503"/>
		</g>
		<g>
			<circle style="fill:#010002;" cx="299.848" cy="226.287" r="3.495"/>
		</g>
		<g>
			<circle style="fill:#010002;" cx="264.83" cy="215.24" r="3.495"/>
		</g>
		<g>
			<circle style="fill:#010002;" cx="245.622" cy="208.493" r="3.495"/>
		</g>
		<g>
			<circle style="fill:#010002;" cx="280.356" cy="228.717" r="3.503"/>
		</g>
		<g>
			<circle style="fill:#010002;" cx="248.053" cy="226.287" r="3.495"/>
		</g>
		<g>
			<circle style="fill:#010002;" cx="262.408" cy="240.837" r="3.495"/>
		</g>
		<g>
			<circle style="fill:#010002;" cx="267.253" cy="261.215" r="3.495"/>
		</g>
		<g>
			<circle style="fill:#010002;" cx="282.778" cy="248.99" r="3.495"/>
		</g>
	</g>
</g>
</svg>