<?xml version="1.0" encoding="iso-8859-1"?>
<!-- Uploaded to: SVG Repo, www.svgrepo.com, Generator: SVG Repo Mixer Tools -->
<svg height="800px" width="800px" version="1.1" id="Layer_1" xmlns="http://www.w3.org/2000/svg" xmlns:xlink="http://www.w3.org/1999/xlink" 
	 viewBox="0 0 512.001 512.001" xml:space="preserve">
<g>
	<path style="fill:#3C1146;" d="M256.001,512.001C114.841,512.001,0,397.161,0,256.001S114.841,0.001,256.001,0.001
		c141.158,0,256.001,114.841,256.001,256.001c0,70.849-28.291,136.757-79.661,185.583c-5.703,5.42-14.713,5.187-20.129-0.511
		c-5.417-5.699-5.19-14.711,0.51-20.129c45.659-43.397,70.804-101.975,70.804-164.943c0-125.458-102.066-227.526-227.525-227.526
		S28.475,130.543,28.475,256.001s102.068,227.526,227.526,227.526c30.709,0,60.493-6.01,88.527-17.859
		c7.243-3.062,15.596,0.327,18.657,7.57c3.061,7.243-0.327,15.596-7.57,18.658C324.052,505.237,290.538,512.001,256.001,512.001z"/>
	<path style="fill:#3C1146;" d="M204.487,417.729c-11.868,0-23.028-4.623-31.422-13.016c-6.067-6.068-10.147-13.575-11.954-21.684
		c-8.149-1.812-15.628-5.9-21.672-11.942c-17.325-17.325-17.325-45.518,0-62.844c8.393-8.393,19.552-13.014,31.422-13.014
		c7.6,0,14.908,1.895,21.386,5.461l65.94-65.94c5.561-5.56,14.573-5.56,20.136,0l31.08,31.08c2.669,2.67,4.17,6.292,4.17,10.067
		c0,3.776-1.501,7.398-4.17,10.067l-65.942,65.94c3.566,6.478,5.461,13.787,5.461,21.386c0,11.87-4.623,23.029-13.016,31.422
		C227.516,413.108,216.357,417.729,204.487,417.729z M174.519,355.4c3.753,0,7.381,1.484,10.067,4.17
		c3.094,3.094,4.593,7.439,4.066,11.781c-0.597,4.919,1.061,9.74,4.549,13.228c3.014,3.016,7.023,4.676,11.286,4.676
		c4.263,0,8.272-1.661,11.286-4.676c3.015-3.015,4.676-7.023,4.676-11.287c0-4.264-1.662-8.272-4.676-11.286
		c-0.231-0.231-0.468-0.448-0.708-0.661c-2.93-2.605-4.656-6.304-4.77-10.222c-0.114-3.918,1.392-7.712,4.163-10.484l64.742-64.742
		l-10.946-10.946l-64.743,64.742c-2.773,2.773-6.573,4.274-10.49,4.163c-3.921-0.117-7.621-1.845-10.225-4.779
		c-0.212-0.239-0.43-0.477-0.659-0.708c-3.007-3.007-7.015-4.667-11.279-4.667s-8.272,1.66-11.287,4.676
		c-6.223,6.223-6.223,16.35,0,22.573c3.467,3.468,8.353,5.14,13.229,4.549C173.376,355.432,173.949,355.4,174.519,355.4z"/>
	<path style="fill:#3C1146;" d="M102.936,314.998c-4.451,0-8.834-2.08-11.612-5.984c-15.737-22.111-17.113-51.519-3.529-74.983
		c-8.3-19.898-6.944-42.805,4.07-61.691c11.01-18.88,30.279-31.336,51.682-33.912c12.828-21.842,36.6-34.88,61.708-34.205
		c13.023-7.849,28.273-11.22,43.495-9.53c7.815,0.867,13.447,7.906,12.579,15.721c-0.867,7.815-7.915,13.447-15.721,12.58
		c-10.025-1.116-20.065,1.492-28.277,7.337c-2.82,2.007-6.274,2.919-9.721,2.561c-15.971-1.657-31.5,6.222-39.571,20.062
		c-0.866,1.486-1.639,3.041-2.359,4.751c-2.251,5.342-7.524,8.779-13.311,8.706c-14.761-0.161-28.5,7.57-35.907,20.274
		c-7.412,12.708-7.399,28.512,0.03,41.244c2.922,5.004,2.517,11.28-1.021,15.869c-1.138,1.476-2.109,2.912-2.97,4.387
		c-8.077,13.85-7.282,31.244,2.02,44.317c4.559,6.407,3.061,15.295-3.344,19.855C108.677,314.141,105.792,314.997,102.936,314.998z"
		/>
</g>
<path style="fill:#D4A8B4;" d="M341.898,289.848c-5.748,0.491-49.809,4.572-71.695,14.986l-30.882-30.882
	c10.415-21.879,14.495-65.935,14.989-71.692c2.153-19.334,11.074-37.718,25.126-51.771c32.984-32.984,85.362-34.269,116.762-2.869
	l0.337,0.337c15.171,15.171,23.251,35.636,22.75,57.629c-0.503,22.115-9.599,43.114-25.619,59.132
	C379.612,278.771,361.232,287.695,341.898,289.848L341.898,289.848z"/>
<path style="fill:#3C1146;" d="M270.207,319.072c-3.697,0-7.339-1.439-10.072-4.17l-30.882-30.882
	c-4.263-4.263-5.379-10.745-2.788-16.188c7.633-16.034,12.177-49.528,13.659-66.79c0.01-0.118,0.023-0.238,0.036-0.357
	c2.509-22.536,12.882-43.938,29.211-60.264c19.198-19.199,44.443-29.773,71.086-29.773c25.088,0,48.46,9.555,65.811,26.904
	l0.346,0.349c17.939,17.939,27.497,42.094,26.904,68.01c-0.587,25.795-11.165,50.255-29.785,68.876
	c-16.33,16.329-37.73,26.704-60.26,29.211c-0.121,0.014-0.241,0.026-0.362,0.036c-17.249,1.476-50.726,6.012-66.79,13.656
	C274.367,318.62,272.278,319.072,270.207,319.072z M256.022,270.519l17.612,17.613c24.333-8.401,58.916-11.767,66.857-12.453
	c16.068-1.828,31.371-9.291,43.105-21.027c13.414-13.414,21.033-30.955,21.453-49.389c0.411-18.066-6.188-34.842-18.584-47.238
	l-0.346-0.347c-11.961-11.961-28.183-18.554-45.665-18.554c-19.035,0-37.131,7.611-50.951,21.433
	c-11.734,11.733-19.196,27.038-21.026,43.114C267.789,211.615,264.412,246.208,256.022,270.519z"/>
</svg>