<?xml version="1.0" encoding="iso-8859-1"?>
<!-- Uploaded to: SVG Repo, www.svgrepo.com, Generator: SVG Repo Mixer Tools -->
<svg height="800px" width="800px" version="1.1" id="Capa_1" xmlns="http://www.w3.org/2000/svg" xmlns:xlink="http://www.w3.org/1999/xlink" 
	 viewBox="0 0 211.149 211.149" xml:space="preserve">
<g>
	<path style="fill:#010002;" d="M173.746,0v20.11H35.803V0.34H11.642v41.873h24.161V23.871h26.655
		c-0.336,1.034-0.526,2.137-0.565,3.267c-0.376,11.66,0.412,50.641,26.469,64.047v28.953c0,0.258,0.014,0.512,0.032,0.859
		c-0.265,0.684-0.465,1.421-0.605,2.19l-10.407,56.99c-0.802,4.366,0,8.256,2.262,10.951c1.7,2.029,4.015,3.146,6.531,3.146
		c4.116,0,7.795-2.874,10.114-7.959L96.382,186c0.902-4.924,2.616-9.956,4.287-14.816c0.866-2.548,1.764-5.15,2.545-7.78
		c1.131,5.386,2.555,10.414,3.947,15.307c2.001,7.054,4.069,14.348,5.168,22.4c0.956,6.932,5.612,10.039,9.802,10.039
		c2.473,0,4.821-1.066,6.445-2.928c1.374-1.575,2.877-4.42,2.24-9.065l-10.142-73.986c-0.007-0.115-0.032-0.236-0.057-0.369
		c0.372-1.428,0.565-2.924,0.565-4.456V91.869c18.624-11.542,27.561-33.04,26.573-63.911c-0.05-1.467-0.322-2.842-0.83-4.094h26.823
		v17.808h25.757V0H173.746z M117.963,90.055v30.295c0,1.371-0.186,2.695-0.565,4.044l-0.057,0.462l10.278,74.741
		c0.476,3.446-0.533,5.451-1.471,6.517c-1.013,1.156-2.477,1.822-4.019,1.822c-2.591,0-5.873-1.9-6.61-7.254
		c-1.138-8.256-3.225-15.647-5.264-22.844c-2.008-7.061-4.073-14.366-5.179-22.429l-1.367-9.96l-1.811,9.899
		c-0.898,4.892-2.62,9.928-4.313,14.87c-1.675,4.899-3.403,9.964-4.341,15.01c-1.746,3.701-4.32,5.837-7.075,5.837
		c-1.553,0-2.988-0.709-4.066-1.99c-1.628-1.965-2.183-4.917-1.564-8.314l10.407-56.997c0.122-0.666,0.311-1.292,0.555-1.875
		l0.15-0.358l-0.036-0.623c-0.018-0.251-0.036-0.501-0.036-0.769V89.181l-0.909-0.44C65.489,76.638,64.738,38.612,65.11,27.242
		c0.043-1.439,0.401-2.727,1.113-3.951l0.125-0.018c1.646-0.447,3.45-0.447,5.064-0.004l4.61,0.021
		c0.591,1.163,0.852,2.426,0.805,3.851c-0.39,12.082,1.174,22.894,4.656,32.12c1.188,3.174,4.803,12.819,11.545,12.819
		c0.605,0,1.22-0.075,1.822-0.233c0.437-0.115,0.888-0.186,1.41-0.243l0.251-0.029l0.451-0.218c2.176-1.396,4.917-2.162,7.716-2.162
		c3.479,0,6.714,1.127,9.122,3.171l0.204,0.172l0.487,0.175c0.533,0.118,1.066,0.179,1.593,0.179
		c7.576,0,11.459-12.229,12.168-14.677c3.028-10.586,4.352-20.478,4.037-30.245c-0.068-1.764,0.322-3.3,1.22-4.649l9.441,0.004
		c0.984,1.303,1.528,2.899,1.582,4.753c0.977,30.052-7.705,50.745-25.782,61.517L117.963,90.055z M104.778,64.677
		c-8.786,0-15.933-7.147-15.933-15.922c0-8.786,7.147-15.933,15.933-15.933c8.779,0,15.919,7.147,15.919,15.933
		C120.697,57.534,113.553,64.677,104.778,64.677z M129.061,28.069c0.304,9.427-0.97,18.997-3.908,29.25
		c-1.267,4.431-4.996,13.013-9.609,12.311c-1.471-1.185-3.178-2.097-5.014-2.713c7.73-2.459,13.392-9.624,13.392-18.163
		c0-10.561-8.586-19.15-19.143-19.15c-10.561,0-19.15,8.589-19.15,19.15c0,8.528,5.647,15.69,13.374,18.152
		c-1.22,0.401-2.401,0.895-3.461,1.539c-0.544,0.072-1.027,0.161-1.496,0.283c-3.443,0.866-6.582-2.691-9.556-10.601
		c-3.332-8.84-4.828-19.226-4.452-30.882c0.043-1.174-0.082-2.305-0.369-3.371h49.975C129.204,25.149,129.01,26.559,129.061,28.069z
		 M176.956,38.465V3.217h19.326v35.248H176.956z M14.863,38.995V3.557h17.722v35.438H14.863z"/>
</g>
</svg>